<?xml version="1.0" standalone="no"?>
<!DOCTYPE svg PUBLIC "-//W3C//DTD SVG 20010904//EN"
 "http://www.w3.org/TR/2001/REC-SVG-20010904/DTD/svg10.dtd">
<svg version="1.0" xmlns="http://www.w3.org/2000/svg"
 width="62.000000pt" height="58.000000pt" viewBox="0 0 62.000000 58.000000"
 preserveAspectRatio="xMidYMid meet">

<g transform="translate(0.000000,58.000000) scale(0.100000,-0.100000)"
fill="#000000" stroke="none">
<path d="M276 504 c-23 -23 -23 -305 0 -328 19 -20 29 -20 48 0 23 23 23 305
0 328 -8 9 -19 16 -24 16 -5 0 -16 -7 -24 -16z"/>
<path d="M182 469 c-78 -39 -140 -138 -157 -252 l-7 -47 111 0 111 0 0 160 c0
88 -3 160 -7 160 -5 0 -27 -10 -51 -21z"/>
<path d="M360 331 l0 -161 111 0 111 0 -7 47 c-20 132 -97 239 -192 268 l-23
6 0 -160z"/>
<path d="M16 134 c-20 -19 -20 -29 0 -48 13 -14 54 -16 294 -16 240 0 281 2
294 16 20 19 20 29 0 48 -13 14 -54 16 -294 16 -240 0 -281 -2 -294 -16z"/>
</g>
</svg>
