<?xml version="1.0" encoding="utf-8"?>
<!-- Generator: Adobe Illustrator 26.0.1, SVG Export Plug-In . SVG Version: 6.00 Build 0)  -->
<svg version="1.1" id="Capa_1" xmlns="http://www.w3.org/2000/svg" xmlns:xlink="http://www.w3.org/1999/xlink" x="0px" y="0px"
	 viewBox="0 0 221 48" style="enable-background:new 0 0 221 48;" xml:space="preserve">
<style type="text/css">
	.st0{fill:#606161;}
	.st1{fill:#DA282E;}
	.st2{fill:#44688D;}
	.st3{fill:none;}
	.st4{fill:#8D9191;}
	.st5{fill:#4A4D6E;}
</style>
<g>
	<g>
		<g>
			<g>
				<path class="st0" d="M60,13h9.1l4.8,13.7L78.7,13h8.9l-9.8,24.6H70L60,13z"/>
				<path class="st0" d="M93.7,13h8.1v24.4h-8.1V13z"/>
				<path class="st0" d="M107.9,33.8l4.4-5.2c2.6,2,5.7,2.8,8.5,2.8c1.4,0,2.1-0.4,2.1-1v-0.1c0-0.7-0.8-1.1-3.3-1.6
					c-5.5-1.1-10.2-2.6-10.2-7.8v-0.1c0-4.7,3.6-8.2,10.3-8.2c4.7,0,8.1,1.1,10.9,3.3l-4,5.5c-2.3-1.7-5.1-2.4-7.3-2.4
					c-1.2,0-1.7,0.4-1.7,1v0.1c0,0.7,0.6,1.1,3.2,1.5c6.2,1.1,10.3,2.9,10.3,7.9v0.1c0,5.2-4.2,8.3-10.7,8.3
					C115.4,37.9,110.9,36.4,107.9,33.8z"/>
				<path class="st1" d="M138.1,13h11.9c4.3,0,7,1.1,8.7,2.8c1.4,1.4,2.2,3.2,2.2,5.8v0.1c0,3.5-1.8,6.1-4.8,7.5l5.7,8.3h-9.2
					l-4.6-7h-0.1h-1.6v6.9h-8.1V13H138.1z M149.7,24.6c1.9,0,3.1-0.9,3.1-2.3v-0.1c0-1.5-1.2-2.3-3-2.3h-3.5v4.8H149.7z"/>
				<path class="st1" d="M168.1,13h20.7v6.7H176v2.4h11.9V28H176v2.6h12.9v6.8H168V13H168.1z"/>
				<path class="st1" d="M196.4,13h9.3c9.6,0,14.5,4.8,14.5,12v0.1c0,7.2-5,12.4-14.7,12.4h-9V13H196.4z M205.8,30.3
					c3.8,0,6.1-1.5,6.1-5.1v-0.1c0-3.5-2.4-5.1-6.1-5.1h-1.3v10.1h1.3V30.3z"/>
			</g>
		</g>
	</g>
	<g>
		<path class="st2" d="M9.5,49"/>
		<line class="st3" x1="19.9" y1="34" x2="25.7" y2="23.9"/>
		<polygon class="st1" points="23.6,24.3 17.8,13.8 8.9,4.9 6.6,9 15.3,18.8 2.4,16.1 0,20.3 14,24.5 0,28 2.4,32.2 15.2,29.4 
			6.5,39.3 8.9,43.5 16.9,35.8 		"/>
		<polygon class="st4" points="37.1,23.2 49.4,19.6 46.9,15.3 34.1,18.1 42.8,8.2 40.4,4.2 30.3,14.4 33.8,0.3 28.9,0.3 24.8,12.8 
			20.7,0.3 15.9,0.3 19.1,11.8 25.4,23.2 		"/>
		<polygon class="st5" points="49.5,28.4 36.8,25.1 25.2,25.1 18.8,36.2 15.9,47.6 20.9,47.6 24.9,35.1 29,47.6 33.8,47.7 30,33.7 
			40.4,43.8 42.9,39.6 34.2,29.8 47,32.6 		"/>
	</g>
</g>
</svg>
