<?xml version="1.0" standalone="no"?>
<!DOCTYPE svg PUBLIC "-//W3C//DTD SVG 20010904//EN"
 "http://www.w3.org/TR/2001/REC-SVG-20010904/DTD/svg10.dtd">
<svg version="1.0" xmlns="http://www.w3.org/2000/svg"
 width="1024.000000pt" height="1024.000000pt" viewBox="0 0 1024.000000 1024.000000"
 preserveAspectRatio="xMidYMid meet">

<g transform="translate(0.000000,1024.000000) scale(0.100000,-0.100000)"
fill="#000000" stroke="none">
<path d="M4612 8939 c-214 -25 -438 -108 -578 -213 -220 -165 -355 -413 -409
-748 -44 -280 9 -856 126 -1363 17 -75 29 -139 26 -141 -13 -14 -466 93 -691
162 -373 115 -580 222 -752 387 -82 78 -134 158 -164 251 -27 86 -6 275 40
354 11 17 17 32 15 32 -10 0 -163 -200 -214 -279 -95 -149 -170 -322 -206
-476 -30 -130 -37 -193 -37 -355 0 -115 4 -161 20 -222 53 -198 148 -355 316
-524 237 -238 512 -399 1116 -654 140 -59 278 -115 305 -124 28 -9 55 -20 61
-24 17 -11 -180 -238 -380 -438 -262 -261 -419 -386 -611 -485 -201 -104 -310
-122 -453 -73 -138 48 -257 131 -277 194 -4 12 -9 20 -11 17 -8 -8 39 -143 81
-233 59 -126 215 -360 318 -475 189 -212 428 -345 685 -379 124 -17 322 -8
432 20 396 99 823 373 1298 833 62 60 114 108 116 106 3 -4 15 -35 89 -239
145 -395 226 -868 198 -1152 -14 -134 -30 -197 -73 -282 -35 -69 -115 -158
-173 -191 -61 -36 -162 -65 -223 -65 -31 0 -53 -2 -50 -5 6 -6 119 -31 208
-46 52 -9 81 -12 225 -28 84 -9 314 4 420 23 426 78 725 328 853 711 89 265
107 535 63 965 -24 248 -24 246 -51 410 -11 63 -22 136 -25 161 -4 26 -19 105
-35 175 -15 71 -27 130 -26 131 1 1 20 -2 41 -7 22 -5 94 -19 160 -30 157 -28
459 -101 604 -146 224 -70 459 -177 599 -273 130 -89 241 -225 284 -349 42
-123 24 -313 -38 -421 -13 -20 -9 -18 16 9 277 305 441 590 495 865 24 127 26
145 26 284 0 189 -28 303 -115 467 -167 313 -499 569 -1016 782 -300 124 -550
210 -862 299 -10 3 -18 8 -18 12 0 3 42 51 93 107 50 55 154 168 230 251 238
260 485 472 681 585 282 162 388 175 601 73 100 -48 176 -108 205 -164 27 -52
24 -28 -9 70 -39 115 -71 183 -134 292 -247 419 -541 649 -900 707 -95 16
-302 8 -406 -14 -397 -86 -920 -427 -1425 -928 -66 -65 -120 -117 -122 -115
-10 11 -85 172 -132 284 -163 380 -244 704 -245 978 -1 116 3 154 22 225 42
158 121 259 255 325 69 34 88 39 167 43 50 3 88 6 86 8 -6 7 -200 45 -302 59
-108 16 -296 17 -413 4z"/>
</g>
</svg>
