<?xml version="1.0" standalone="no"?>
<!DOCTYPE svg PUBLIC "-//W3C//DTD SVG 20010904//EN"
 "http://www.w3.org/TR/2001/REC-SVG-20010904/DTD/svg10.dtd">
<svg version="1.0" xmlns="http://www.w3.org/2000/svg"
 width="56.000000pt" height="58.000000pt" viewBox="0 0 56.000000 58.000000"
 preserveAspectRatio="xMidYMid meet">

<g transform="translate(0.000000,58.000000) scale(0.100000,-0.100000)"
fill="#606161" stroke="none">
<path d="M90 507 c-60 -31 -94 -94 -86 -157 4 -24 10 -47 14 -51 4 -4 44 -9
90 -11 l83 -5 21 74 c33 109 45 101 67 -46 6 -35 12 -65 14 -67 2 -2 10 14 17
36 17 52 26 57 54 31 20 -19 33 -22 102 -19 l79 3 9 46 c24 126 -111 226 -228
169 l-46 -22 -43 21 c-56 27 -93 26 -147 -2z"/>
<path d="M237 340 c-31 -90 -34 -95 -53 -91 -10 2 -48 5 -84 8 l-65 5 50 -52
c28 -28 83 -76 123 -107 l72 -56 73 56 c39 31 94 78 122 106 l49 51 -74 0
c-51 0 -78 5 -90 15 -15 14 -19 10 -41 -46 -13 -34 -28 -62 -34 -63 -5 0 -17
42 -26 94 -9 52 -19 88 -22 80z"/>
</g>
</svg>
