<svg xmlns="http://www.w3.org/2000/svg" id="Layer_1" data-name="Layer 1" viewBox="0 0 165.65 35.64"><defs><style xmlns="http://www.w3.org/2000/svg">
    .cls-1{fill:#999899;}
	.st0{fill:#606161;}
	.st1{fill:#DA282E;}
	.st2{fill:#44688D;}
	.st3{fill:none;}
	.st4{fill:#8D9191;}
	.st5{fill:#4A4D6E;}
</style></defs><title>vis-logo-footer</title><path class="st0" d="M49.52,6.86h6.83L59.9,17.17,63.45,6.86h6.73L62.77,25.37H56.93Z" transform="translate(-4.37 -3.41)"/><path class="st0" d="M74.91,6.86H81V25.23h-6.1Z" transform="translate(-4.37 -3.41)"/><path class="st0" d="M85.55,22.48l3.27-3.91a10.42,10.42,0,0,0,6.39,2.15c1.09,0,1.56-.29,1.56-.79v-.05c0-.53-.57-.81-2.53-1.21-4.09-.84-7.69-2-7.69-5.91v0c0-3.49,2.71-6.19,7.75-6.19A12.57,12.57,0,0,1,102.54,9l-3,4.14a9.57,9.57,0,0,0-5.48-1.81c-.92,0-1.33.32-1.33.76v.06c0,.5.49.81,2.42,1.18,4.67.86,7.81,2.23,7.81,5.93v.05c0,3.86-3.16,6.23-8.07,6.23A14.08,14.08,0,0,1,85.55,22.48Z" transform="translate(-4.37 -3.41)"/><path class="st1" d="M108.31,6.86h8.92c3.24,0,5.3.81,6.58,2.1a5.82,5.82,0,0,1,1.67,4.36v0a6,6,0,0,1-3.6,5.62l4.25,6.24h-7L115.72,20h-1.31v5.25h-6.1Zm8.74,8.74c1.46,0,2.35-.66,2.35-1.79v-.05c0-1.18-.92-1.76-2.32-1.76h-2.67v3.6Z" transform="translate(-4.37 -3.41)"/><path class="st1" d="M130.88,6.86h15.58v5h-9.58v1.86h8.93V18.2h-8.93v2h9.71v5H130.88Z" transform="translate(-4.37 -3.41)"/><path class="st1" d="M152.15,6.86h7c7.25,0,10.88,3.59,10.88,9v0c0,5.44-3.7,9.29-11.09,9.29h-6.78Zm7.12,13c2.79,0,4.59-1.16,4.59-3.81V16c0-2.65-1.8-3.81-4.59-3.81h-1v7.67Z" transform="translate(-4.37 -3.41)"/><path class="st0" d="M54.27,35.68l-.27.68H52.91l1.52-4h1.12l1.48,4H55.94l-.26-.68Zm.72-2h0l-.43,1.26h.85Z" transform="translate(-4.37 -3.41)"/><path class="st0" d="M62.38,33.42a1.12,1.12,0,0,0-.68-.26c-.19,0-.44.11-.44.33s.28.32.45.38L62,34c.54.16,1,.44,1,1.08a1.38,1.38,0,0,1-.41,1.07,1.74,1.74,0,0,1-1.12.37A2.44,2.44,0,0,1,60,36l.44-.83a1.42,1.42,0,0,0,.91.41c.24,0,.49-.12.49-.4s-.4-.39-.62-.45c-.64-.19-1.06-.35-1.06-1.12a1.28,1.28,0,0,1,1.35-1.33,2.66,2.66,0,0,1,1.23.33Z" transform="translate(-4.37 -3.41)"/><path class="st0" d="M67.32,33.28v.66h1.16v.87H67.32v.68h1.22v.87H66.3v-4h2.24v.87Z" transform="translate(-4.37 -3.41)"/><path class="st0" d="M74.2,33.42a1.08,1.08,0,0,0-.68-.26c-.18,0-.43.11-.43.33s.27.32.45.38l.26.08c.55.16,1,.44,1,1.08a1.37,1.37,0,0,1-.4,1.07,1.76,1.76,0,0,1-1.12.37A2.47,2.47,0,0,1,71.86,36l.44-.83a1.44,1.44,0,0,0,.91.41c.24,0,.5-.12.5-.4s-.4-.39-.62-.45c-.65-.19-1.07-.35-1.07-1.12a1.28,1.28,0,0,1,1.36-1.33,2.66,2.66,0,0,1,1.23.33Z" transform="translate(-4.37 -3.41)"/><path class="st0" d="M82.28,34.31a2.18,2.18,0,1,1-2.17-2A2.09,2.09,0,0,1,82.28,34.31Zm-3.29,0a1.12,1.12,0,1,0,2.23,0,1.12,1.12,0,0,0-2.23,0Z" transform="translate(-4.37 -3.41)"/><path class="st0" d="M88.9,36.36H87.63l-1-1.52h0v1.52h-1v-4h1.53c.77,0,1.36.37,1.36,1.21a1.06,1.06,0,0,1-.86,1.12Zm-2.25-2.18h.1c.33,0,.71-.06.71-.49s-.38-.5-.71-.5h-.1Z" transform="translate(-4.37 -3.41)"/><path class="st0" d="M93.07,33.28v.66h1.15v.87H93.07v.68h1.22v.87H92.05v-4h2.24v.87Z" transform="translate(-4.37 -3.41)"/><path class="st0" d="M100,33.42a1.12,1.12,0,0,0-.68-.26c-.19,0-.44.11-.44.33s.28.32.45.38l.27.08c.54.16,1,.44,1,1.08a1.38,1.38,0,0,1-.41,1.07,1.74,1.74,0,0,1-1.12.37A2.44,2.44,0,0,1,97.61,36l.44-.83a1.42,1.42,0,0,0,.91.41c.24,0,.49-.12.49-.4s-.4-.39-.62-.45c-.64-.19-1.06-.35-1.06-1.12a1.28,1.28,0,0,1,1.35-1.33,2.63,2.63,0,0,1,1.23.33Z" transform="translate(-4.37 -3.41)"/><path class="st0" d="M109.56,33.28v.66h1.15v.87h-1.15v.68h1.21v.87h-2.24v-4h2.24v.87Z" transform="translate(-4.37 -3.41)"/><path class="st0" d="M114.27,32.41h1l1.87,2.41h0V32.41h1v4h-1l-1.87-2.42h0v2.42h-1Z" transform="translate(-4.37 -3.41)"/><path class="st0" d="M128.56,33.42a1.12,1.12,0,0,0-.68-.26c-.18,0-.43.11-.43.33s.27.32.45.38l.26.08c.55.16,1,.44,1,1.08a1.34,1.34,0,0,1-.41,1.07,1.71,1.71,0,0,1-1.11.37,2.47,2.47,0,0,1-1.39-.45l.44-.83a1.44,1.44,0,0,0,.91.41c.24,0,.5-.12.5-.4s-.41-.39-.62-.45c-.65-.19-1.07-.35-1.07-1.12a1.28,1.28,0,0,1,1.36-1.33,2.69,2.69,0,0,1,1.23.33Z" transform="translate(-4.37 -3.41)"/><path class="st0" d="M133.51,33.28v.66h1.15v.87h-1.15v.68h1.22v.87h-2.24v-4h2.24v.87Z" transform="translate(-4.37 -3.41)"/><path class="st0" d="M142.15,34.15a2.57,2.57,0,0,1-.4,1.57,1.89,1.89,0,0,1-1.62.77,2,2,0,0,1-2.1-2.08,2,2,0,0,1,2.13-2.14,1.84,1.84,0,0,1,1.78,1.11l-1,.41a.89.89,0,0,0-.85-.63,1.27,1.27,0,0,0,0,2.49A.75.75,0,0,0,141,35h-.84v-.81Z" transform="translate(-4.37 -3.41)"/><path class="st0" d="M148.91,32.41v2.22a1.78,1.78,0,0,1-.42,1.4,1.89,1.89,0,0,1-1.3.44,1.91,1.91,0,0,1-1.31-.44,1.82,1.82,0,0,1-.41-1.4V32.41h1v2.08c0,.51,0,1.08.7,1.08s.69-.57.69-1.08V32.41Z" transform="translate(-4.37 -3.41)"/><path class="st0" d="M155.7,36.36h-1.28l-1-1.52h0v1.52h-1v-4H154c.78,0,1.37.37,1.37,1.21a1.06,1.06,0,0,1-.86,1.12Zm-2.25-2.18h.09c.34,0,.71-.06.71-.49s-.37-.5-.71-.5h-.09Z" transform="translate(-4.37 -3.41)"/><path class="st0" d="M163,34.31a2.18,2.18,0,1,1-2.18-2A2.1,2.1,0,0,1,163,34.31Zm-3.29,0a1.11,1.11,0,1,0,2.22,0,1.11,1.11,0,0,0-2.22,0Z" transform="translate(-4.37 -3.41)"/><path class="st0" d="M168.5,33.42a1.12,1.12,0,0,0-.68-.26c-.18,0-.43.11-.43.33s.27.32.45.38l.26.08c.55.16,1,.44,1,1.08a1.34,1.34,0,0,1-.41,1.07,1.71,1.71,0,0,1-1.11.37,2.47,2.47,0,0,1-1.39-.45l.44-.83a1.44,1.44,0,0,0,.91.41c.24,0,.5-.12.5-.4s-.41-.39-.62-.45c-.65-.19-1.07-.35-1.07-1.12a1.28,1.28,0,0,1,1.36-1.33,2.69,2.69,0,0,1,1.23.33Z" transform="translate(-4.37 -3.41)"/><path class="cls-1" d="M11.51,40" transform="translate(-4.37 -3.41)"/><line class="cls-1" x1="14.98" y1="25.34" x2="19.38" y2="17.73"/><polygon class="st1" points="17.75 18.04 13.4 10.21 6.72 3.46 4.93 6.54 11.52 13.92 1.86 11.87 0 15.09 10.53 18.16 0.02 20.89 1.8 23.97 11.48 21.96 4.87 29.29 6.73 32.52 12.73 26.71 17.75 18.04"/><polygon class="st4" points="27.96 17.18 37.16 14.55 35.3 11.33 25.64 13.38 32.23 6 30.45 2.92 22.83 10.66 25.45 0.01 21.72 0 18.66 9.39 15.57 0 12.01 0 14.36 8.63 19.12 17.18 27.96 17.18"/><polygon class="st5" points="37.22 21.18 27.74 18.64 19 18.64 14.15 27.03 11.96 35.57 15.69 35.59 18.79 26.21 21.84 35.62 25.4 35.64 22.56 25.15 30.44 32.78 32.32 29.56 25.75 22.19 35.42 24.26 37.22 21.18"/></svg>
